<svg width="32" height="36" viewBox="0 0 32 36" fill="none" xmlns="http://www.w3.org/2000/svg">
<path d="M4.09906 28.5992L4.09883 28.5991C3.2261 27.9483 2.42549 26.9206 1.8427 25.759C1.25985 24.5973 0.916626 23.3451 0.916626 22.2666V9.86657C0.916626 7.50736 2.67146 4.96177 4.89112 4.13513L4.89208 4.13477L13.2083 1.01826C13.2084 1.01823 13.2085 1.0182 13.2086 1.01817C13.9621 0.736611 14.9615 0.587402 15.9833 0.587402C17.0051 0.587402 18.0045 0.736611 18.758 1.01817C18.7581 1.0182 18.7582 1.01823 18.7582 1.01826L27.0745 4.13477L27.0755 4.13513C29.2951 4.96177 31.05 7.50736 31.05 9.86657V22.2499C31.05 23.3371 30.7066 24.5892 30.124 25.7483C29.5415 26.9073 28.741 27.9313 27.8678 28.5824L27.8675 28.5826L20.7009 33.9326L20.7008 33.9325L20.6946 33.9373C19.4119 34.9264 17.724 35.4332 16 35.4332C14.2773 35.4332 12.5851 34.927 11.2648 33.9486C11.2647 33.9484 11.2645 33.9483 11.2644 33.9482L4.09906 28.5992ZM13.7418 2.43145L13.7412 2.4317L5.4245 5.54837L5.42379 5.54863C4.59621 5.86019 3.85498 6.52248 3.32406 7.29061C2.79297 8.059 2.43329 8.98976 2.43329 9.88324V22.2666C2.43329 23.161 2.74388 24.1892 3.20088 25.101C3.65776 26.0126 4.29325 26.8722 5.00081 27.4005L5.00085 27.4006L12.1672 32.7503C13.2292 33.5445 14.6282 33.9249 16.002 33.9249C17.376 33.9249 18.7782 33.5445 19.8477 32.7516L19.8491 32.7506L27.0157 27.4006L27.0166 27.3999C27.7314 26.8638 28.3668 26.005 28.8222 25.0943C29.2775 24.1837 29.5833 23.16 29.5833 22.2666V9.86657C29.5833 8.9804 29.2229 8.05375 28.6925 7.28645C28.162 6.51889 27.4223 5.85396 26.5976 5.5338L26.5976 5.53376L26.5921 5.5317L18.2754 2.41503L18.2755 2.41495L18.2664 2.41174C17.6282 2.18651 16.8001 2.08314 16.0007 2.08532C15.202 2.0875 14.3751 2.19514 13.7418 2.43145Z" fill="#FAFAFA" stroke="#FAFAFA"/>
</svg>
